# xmcd
#
# Track frame offsets:
#	182
#	14177
#	29110
#	46707
#	62265
#	80827
#	96082
#	109245
#	120725
#	138917
#	153465
#
# Disc length: 2198 seconds
#
# Revision: 3
# Processed by: cddbd v1.5.2PL0 Copyright (c) Steve Scherf et al.
# Submitted via: audiograbber 1.83.01
#
DISCID=9308940b
DTITLE=Various Artist - Today's Hot Country
DYEAR=1900
DGENRE=Oldies
TTITLE0=Patty Loveless - I'm That Kind Of Girl
TTITLE1=Diamond Rio - Meet Me In The Middle
TTITLE2=Collin Raye - Love, Me
TTITLE3=Ricky Van Shelton - I Am A Simple Man
TTITLE4=Vince Gill - Pocket Full Of Gold
TTITLE5=Mary Chapin Carpenter - Down At The Twist And Shout
TTITLE6=John Anderson - Straight Tequila Night
TTITLE7=Highway 101 - Bing Bang Boom
TTITLE8=Pirates Of The Mississippi - Feed Jake
TTITLE9=Pam Tillis - Don't Tell Me What To Do
TTITLE10=Wood Brothers - Alcohol Of Fame
EXTD=
EXTT0=
EXTT1=
EXTT2=
EXTT3=
EXTT4=
EXTT5=
EXTT6=
EXTT7=
EXTT8=
EXTT9=
EXTT10=
PLAYORDER=
